<svg width="57" height="56" viewBox="0 0 57 56" fill="none" xmlns="http://www.w3.org/2000/svg">
<path id="Vector" d="M46.3125 0C49.2565 0 51.7738 1.02691 53.8643 3.08073C55.9547 5.13455 57 7.60764 57 10.5V45.5C57 48.3924 55.9547 50.8654 53.8643 52.9193C51.7738 54.9731 49.2565 56 46.3125 56H39.3359V34.3073H46.7207L47.834 25.849H39.3359V20.4531C39.3359 19.092 39.6266 18.0712 40.208 17.3906C40.7894 16.7101 41.9212 16.3698 43.6035 16.3698L48.1309 16.3333V8.78646C46.5723 8.56771 44.3704 8.45833 41.5254 8.45833C38.1608 8.45833 35.4704 9.43056 33.4541 11.375C31.4378 13.3194 30.4297 16.066 30.4297 19.6146V25.849H23.0078V34.3073H30.4297V56H10.6875C7.74349 56 5.22624 54.9731 3.13574 52.9193C1.04525 50.8654 0 48.3924 0 45.5V10.5C0 7.60764 1.04525 5.13455 3.13574 3.08073C5.22624 1.02691 7.74349 0 10.6875 0H46.3125Z" fill="#AA0505"/>
</svg>
