<svg width="54" height="55" viewBox="0 0 54 55" fill="none" xmlns="http://www.w3.org/2000/svg">
<path id="Vector" d="M27 20.68C25.6757 20.68 24.3811 21.08 23.2799 21.8294C22.1788 22.5788 21.3205 23.6439 20.8137 24.8901C20.3069 26.1363 20.1743 27.5076 20.4327 28.8305C20.691 30.1535 21.3288 31.3687 22.2652 32.3225C23.2017 33.2763 24.3948 33.9258 25.6937 34.189C26.9926 34.4521 28.3389 34.3171 29.5624 33.8009C30.786 33.2847 31.8318 32.4105 32.5675 31.289C33.3033 30.1674 33.696 28.8489 33.696 27.5C33.696 26.6044 33.5228 25.7175 33.1863 24.8901C32.8498 24.0627 32.3566 23.3108 31.7348 22.6775C31.113 22.0442 30.3748 21.5419 29.5624 21.1991C28.7501 20.8564 27.8793 20.68 27 20.68ZM53.811 13.9425C53.7968 11.8188 53.4128 9.71457 52.677 7.7275C52.1351 6.27347 51.2966 4.95301 50.2168 3.85326C49.137 2.75351 47.8406 1.89947 46.413 1.3475C44.4621 0.598026 42.3961 0.206967 40.311 0.1925C36.828 -1.84402e-07 35.802 0 27 0C18.198 0 17.172 -1.84402e-07 13.689 0.1925C11.6039 0.206967 9.53794 0.598026 7.587 1.3475C6.1594 1.89947 4.86295 2.75351 3.7832 3.85326C2.70345 4.95301 1.86494 6.27347 1.323 7.7275C0.587152 9.71457 0.203204 11.8188 0.189 13.9425C-1.81049e-07 17.49 0 18.535 0 27.5C0 36.465 -1.81049e-07 37.51 0.189 41.0575C0.218062 43.1886 0.601491 45.2994 1.323 47.3C1.86254 48.7474 2.70035 50.0602 3.78 51.15C4.85512 52.2564 6.15435 53.1104 7.587 53.6525C9.53794 54.402 11.6039 54.793 13.689 54.8075C17.172 55 18.198 55 27 55C35.802 55 36.828 55 40.311 54.8075C42.3961 54.793 44.4621 54.402 46.413 53.6525C47.8456 53.1104 49.1449 52.2564 50.22 51.15C51.2997 50.0602 52.1375 48.7474 52.677 47.3C53.4121 45.3032 53.796 43.19 53.811 41.0575C54 37.51 54 36.465 54 27.5C54 18.535 54 17.49 53.811 13.9425ZM46.953 35.9425C46.8664 37.6395 46.5108 39.3111 45.9 40.8925C45.3758 42.2116 44.5966 43.41 43.6087 44.4162C42.6207 45.4225 41.4441 46.2161 40.149 46.75C38.5817 47.3374 36.9313 47.6624 35.262 47.7125C33.129 47.7125 32.562 47.7125 27 47.7125C21.438 47.7125 20.871 47.7125 18.738 47.7125C17.0687 47.6624 15.4183 47.3374 13.851 46.75C12.5121 46.2432 11.3029 45.4347 10.314 44.385C9.3357 43.3984 8.58018 42.2066 8.1 40.8925C7.521 39.2978 7.21064 37.615 7.182 35.915C7.182 33.7425 7.182 33.165 7.182 27.5C7.182 21.835 7.182 21.2575 7.182 19.085C7.21064 17.385 7.521 15.7022 8.1 14.1075C8.59756 12.7438 9.39134 11.5123 10.422 10.505C11.3949 9.51397 12.5638 8.74526 13.851 8.25C15.4183 7.66262 17.0687 7.33758 18.738 7.2875C20.871 7.2875 21.438 7.2875 27 7.2875C32.562 7.2875 33.129 7.2875 35.262 7.2875C36.9313 7.33758 38.5817 7.66262 40.149 8.25C41.4879 8.75677 42.6971 9.56526 43.686 10.615C44.6643 11.6016 45.4198 12.7934 45.9 14.1075C46.4767 15.7038 46.7958 17.3848 46.845 19.085C46.845 21.2575 46.845 21.835 46.845 27.5C46.845 33.165 47.034 33.7425 46.953 35.915V35.9425ZM42.633 15.4825C42.3115 14.5942 41.8047 13.7875 41.1474 13.1181C40.4902 12.4487 39.6981 11.9324 38.826 11.605C37.6285 11.1822 36.3672 10.9774 35.1 11C32.994 11 32.4 11 27 11C21.6 11 21.006 11 18.9 11C17.6263 11.0127 16.3649 11.2547 15.174 11.715C14.3152 12.0276 13.5316 12.5227 12.8752 13.1676C12.2188 13.8124 11.7047 14.5922 11.367 15.455C10.9749 16.6798 10.7833 17.9619 10.8 19.25C10.8 21.395 10.8 22 10.8 27.5C10.8 33 10.8 33.605 10.8 35.75C10.8268 37.0458 11.064 38.3281 11.502 39.545C11.8235 40.4333 12.3303 41.24 12.9876 41.9094C13.6448 42.5788 14.4369 43.0951 15.309 43.4225C16.461 43.854 17.6733 44.0954 18.9 44.1375C21.006 44.1375 21.6 44.1375 27 44.1375C32.4 44.1375 32.994 44.1375 35.1 44.1375C36.3737 44.1248 37.6351 43.8828 38.826 43.4225C39.6981 43.0951 40.4902 42.5788 41.1474 41.9094C41.8047 41.24 42.3115 40.4333 42.633 39.545C43.0849 38.3321 43.3225 37.0473 43.335 35.75C43.335 33.605 43.335 33 43.335 27.5C43.335 22 43.335 21.395 43.335 19.25C43.3358 17.9514 43.0977 16.6642 42.633 15.455V15.4825ZM27 38.005C25.6468 38.005 24.3069 37.7331 23.0571 37.2048C21.8072 36.6766 20.672 35.9023 19.7164 34.9265C18.7608 33.9507 18.0037 32.7924 17.4883 31.518C16.9729 30.2436 16.7094 28.8782 16.713 27.5C16.713 25.4211 17.3186 23.389 18.4531 21.6609C19.5876 19.9328 21.2001 18.5863 23.0863 17.792C24.9725 16.9978 27.0477 16.7913 29.0491 17.1989C31.0506 17.6065 32.8883 18.6097 34.3297 20.0816C35.771 21.5535 36.7512 23.4279 37.1461 25.4675C37.541 27.5071 37.3329 29.6201 36.5481 31.5392C35.7633 33.4582 34.4372 35.097 32.7375 36.248C31.0378 37.399 29.0411 38.0104 27 38.005ZM37.8 19.0575C37.2031 18.9932 36.6508 18.7061 36.2493 18.2517C35.8479 17.7972 35.6258 17.2076 35.6258 16.5963C35.6258 15.9849 35.8479 15.3953 36.2493 14.9408C36.6508 14.4864 37.2031 14.1993 37.8 14.135C38.3969 14.1993 38.9492 14.4864 39.3507 14.9408C39.7521 15.3953 39.9742 15.9849 39.9742 16.5963C39.9742 17.2076 39.7521 17.7972 39.3507 18.2517C38.9492 18.7061 38.3969 18.9932 37.8 19.0575Z" fill="#AA0505"/>
</svg>
