<svg width="59" height="59" viewBox="0 0 59 59" fill="none" xmlns="http://www.w3.org/2000/svg">
<path id="Vector" d="M54.6431 0H4.35949C1.95161 0 0 1.89193 0 4.22702V54.771C0 57.1061 1.95227 59 4.35949 59H54.6431C57.051 59 59 57.1054 59 54.771V4.22702C59 1.89259 57.051 0 54.6431 0ZM17.887 49.3869H8.97269V22.7491H17.887V49.3869ZM13.4305 19.1101H13.3709C10.3815 19.1101 8.44365 17.0654 8.44365 14.5061C8.44365 11.8951 10.4385 9.9061 13.4869 9.9061C16.5359 9.9061 18.4115 11.8944 18.4705 14.5061C18.4705 17.0661 16.5366 19.1101 13.4305 19.1101ZM50.0214 49.3869H41.1097V35.1352C41.1097 31.5532 39.8182 29.1099 36.5955 29.1099C34.1299 29.1099 32.6667 30.7587 32.0242 32.3497C31.7856 32.9187 31.7273 33.7133 31.7273 34.5078V49.3863H22.8169C22.8169 49.3863 22.9336 25.2468 22.8169 22.7484H31.7279V26.5251C32.9112 24.7105 35.0248 22.1217 39.7579 22.1217C45.6232 22.1217 50.0214 25.9266 50.0214 34.1125V49.3869ZM31.6702 26.6097C31.686 26.5847 31.707 26.5539 31.7279 26.5251V26.6097H31.6702Z" fill="#AA0505"/>
</svg>
