<svg width="427" height="58" viewBox="0 0 427 58" fill="none" xmlns="http://www.w3.org/2000/svg">
<path d="M52.8496 21.3633C52.8496 24.9567 51.8634 28.1854 49.8911 31.0493C47.9188 33.9132 45.3385 36.0207 42.1504 37.3716L52.1606 58H39.3135L29.9517 38.709H12.3628V58H0.771973V32.9136C0.771973 31.3195 1.33936 29.9551 2.47412 28.8203C3.60889 27.6855 4.97331 27.1182 6.56738 27.1182H35.5039C37.098 27.1182 38.4624 26.5643 39.5972 25.4565C40.7319 24.3218 41.2993 22.9574 41.2993 21.3633V17.4727C41.2993 15.8786 40.7319 14.5277 39.5972 13.4199C38.4624 12.2852 37.098 11.7178 35.5039 11.7178H0.771973V0.126953H35.5039C38.6921 0.126953 41.5965 0.910482 44.2173 2.47754C46.8381 4.0446 48.932 6.13851 50.499 8.75928C52.0661 11.38 52.8496 14.2845 52.8496 17.4727V21.3633ZM78.3413 58C75.1532 58 72.2487 57.2165 69.6279 55.6494C67.0072 54.0824 64.9132 51.9884 63.3462 49.3677C61.7791 46.7469 60.9956 43.8424 60.9956 40.6543C60.9956 38.4118 61.3874 36.3044 62.1709 34.332C62.9544 32.3597 64.0352 30.6035 65.4131 29.0635C64.0352 27.5234 62.9544 25.7673 62.1709 23.7949C61.3874 21.8226 60.9956 19.7152 60.9956 17.4727C60.9956 14.2845 61.7791 11.38 63.3462 8.75928C64.9132 6.13851 67.0072 4.0446 69.6279 2.47754C72.2487 0.910482 75.1532 0.126953 78.3413 0.126953H111.168V11.7178H78.3413C76.7472 11.7178 75.3828 12.2852 74.248 13.4199C73.1403 14.5277 72.5864 15.8786 72.5864 17.4727C72.5864 19.0938 73.1403 20.4717 74.248 21.6064C75.3828 22.7142 76.7472 23.2681 78.3413 23.2681H105.373V34.8589H78.3413C76.7472 34.8589 75.3828 35.4263 74.248 36.561C73.1403 37.6958 72.5864 39.0602 72.5864 40.6543C72.5864 42.2484 73.1403 43.6128 74.248 44.7476C75.3828 45.8553 76.7472 46.4092 78.3413 46.4092H111.168V58H78.3413ZM169.447 58H157.856V34.8589H145.333V23.2681H163.651C165.245 23.2681 166.61 23.8354 167.745 24.9702C168.879 26.105 169.447 27.4694 169.447 29.0635V58ZM152.061 46.4092V58H142.415C136.228 58 130.77 55.744 126.042 51.2319C121.53 46.5037 119.274 41.0461 119.274 34.8589V23.2681C119.274 17.0809 121.53 11.6232 126.042 6.89502C130.77 2.38298 136.228 0.126953 142.415 0.126953H167.501V11.7178H142.415C139.227 11.7178 136.498 12.8525 134.229 15.1221C131.986 17.3646 130.865 20.0799 130.865 23.2681V34.8589C130.865 38.047 131.986 40.7759 134.229 43.0454C136.498 45.2879 139.227 46.4092 142.415 46.4092H152.061ZM189.143 0.126953V58H177.552V0.126953H189.143ZM214.594 34.8589C211.406 34.8589 208.502 34.0754 205.881 32.5083C203.26 30.9412 201.166 28.8473 199.599 26.2266C198.032 23.6058 197.249 20.6878 197.249 17.4727C197.249 14.2845 198.032 11.38 199.599 8.75928C201.166 6.13851 203.26 4.0446 205.881 2.47754C208.502 0.910482 211.406 0.126953 214.594 0.126953H248.354V11.7178H214.594C213 11.7178 211.636 12.2852 210.501 13.4199C209.393 14.5277 208.839 15.8786 208.839 17.4727C208.839 19.0938 209.393 20.4717 210.501 21.6064C211.636 22.7142 213 23.2681 214.594 23.2681H232.953C236.141 23.2681 239.046 24.0516 241.667 25.6187C244.287 27.1857 246.381 29.2931 247.948 31.9409C249.515 34.5617 250.299 37.4661 250.299 40.6543C250.299 43.8424 249.515 46.7469 247.948 49.3677C246.381 51.9884 244.287 54.0824 241.667 55.6494C239.046 57.2165 236.141 58 232.953 58H198.221V46.4092H232.953C234.547 46.4092 235.898 45.8553 237.006 44.7476C238.141 43.6128 238.708 42.2484 238.708 40.6543C238.708 39.0602 238.141 37.6958 237.006 36.561C235.898 35.4263 234.547 34.8589 232.953 34.8589H214.594ZM278.222 58V11.7178H258.445V0.126953H309.55V11.7178H289.772V58H278.222ZM366.004 58H333.177C329.989 58 327.085 57.2165 324.464 55.6494C321.843 54.0824 319.749 51.9884 318.182 49.3677C316.615 46.7469 315.832 43.8424 315.832 40.6543V29.0635V17.4727C315.832 14.2845 316.615 11.38 318.182 8.75928C319.749 6.13851 321.843 4.0446 324.464 2.47754C327.085 0.910482 329.989 0.126953 333.177 0.126953H366.004V11.7178H333.177C331.583 11.7178 330.219 12.2852 329.084 13.4199C327.976 14.5277 327.422 15.8786 327.422 17.4727V23.2681H360.209V34.8589H327.422V40.6543C327.422 42.2484 327.976 43.6128 329.084 44.7476C330.219 45.8553 331.583 46.4092 333.177 46.4092H366.004V58ZM426.188 21.3633C426.188 24.9567 425.201 28.1854 423.229 31.0493C421.257 33.9132 418.676 36.0207 415.488 37.3716L425.499 58H412.651L403.29 38.709H385.701V58H374.11V32.9136C374.11 31.3195 374.677 29.9551 375.812 28.8203C376.947 27.6855 378.311 27.1182 379.905 27.1182H408.842C410.436 27.1182 411.8 26.5643 412.935 25.4565C414.07 24.3218 414.637 22.9574 414.637 21.3633V17.4727C414.637 15.8786 414.07 14.5277 412.935 13.4199C411.8 12.2852 410.436 11.7178 408.842 11.7178H374.11V0.126953H408.842C412.03 0.126953 414.934 0.910482 417.555 2.47754C420.176 4.0446 422.27 6.13851 423.837 8.75928C425.404 11.38 426.188 14.2845 426.188 17.4727V21.3633Z" fill="url(#paint0_linear_1_14)"/>
<defs>
<linearGradient id="paint0_linear_1_14" x1="404.69" y1="-25" x2="223.148" y2="234.788" gradientUnits="userSpaceOnUse">
<stop stop-color="#AA0505"/>
<stop offset="1" stop-color="#AA0505"/>
</linearGradient>
</defs>
</svg>
