<svg width="280" height="76" viewBox="0 0 280 76" fill="none" xmlns="http://www.w3.org/2000/svg">
<g filter="url(#filter0_d_58_5)">
<path d="M42.3448 26.155L62.3114 5.53307C58.7711 2.72751 54.5512 0.909263 50.0806 0.263116C45.61 -0.383031 41.0481 0.165957 36.8584 1.85428L42.3448 26.155Z" fill="url(#paint0_linear_58_5)"/>
<path d="M70.1367 35.1637C71.9065 30.7846 72.4291 26.001 71.6464 21.3431C70.8638 16.6851 68.8065 12.335 65.7027 8.77494L45.7337 29.2931L70.1367 35.1637Z" fill="url(#paint1_linear_58_5)"/>
<path d="M43.1027 34.0002L40.689 54.7018L52.6395 50.3713L55.4129 49.3695C58.6288 48.2241 61.5726 46.4249 64.0589 44.0855C64.211 43.9406 64.3606 43.7934 64.5103 43.6462C65.7653 42.3909 66.8872 41.0092 67.8582 39.5232L43.1027 34.0002Z" fill="url(#paint2_linear_58_5)"/>
<path d="M38.2994 28.7789L32.6078 4.05576C31.0702 5.04392 29.6427 6.19386 28.3499 7.48592C26.2644 9.57153 25.3207 10.7664 23.4017 14.4404L21.4273 19.3382L17.1718 31.217L38.2994 28.7789Z" fill="url(#paint3_linear_58_5)"/>
<path d="M38.437 33.6429L15.3446 36.3055L4 68L35.4681 56.5967L38.437 33.6429Z" fill="url(#paint4_linear_58_5)"/>
<path d="M110.664 38.2231C108.628 38.2231 106.774 37.7228 105.1 36.7222C103.427 35.7215 102.09 34.3844 101.089 32.7109C100.088 31.0374 99.5879 29.1742 99.5879 27.1211C99.5879 25.0853 100.088 23.2306 101.089 21.5571C102.09 19.8836 103.427 18.5465 105.1 17.5459C106.774 16.5452 108.628 16.0449 110.664 16.0449H132.221V23.4463H110.664C109.646 23.4463 108.775 23.8086 108.05 24.5332C107.343 25.2406 106.989 26.1032 106.989 27.1211C106.989 28.1562 107.343 29.0361 108.05 29.7607C108.775 30.4681 109.646 30.8218 110.664 30.8218H122.387C124.423 30.8218 126.278 31.3221 127.951 32.3228C129.625 33.3234 130.962 34.6691 131.962 36.3599C132.963 38.0334 133.463 39.888 133.463 41.9238C133.463 43.9596 132.963 45.8143 131.962 47.4878C130.962 49.1613 129.625 50.4984 127.951 51.499C126.278 52.4997 124.423 53 122.387 53H100.209V45.5986H122.387C123.405 45.5986 124.268 45.245 124.975 44.5376C125.7 43.813 126.062 42.9417 126.062 41.9238C126.062 40.9059 125.7 40.0347 124.975 39.3101C124.268 38.5854 123.405 38.2231 122.387 38.2231H110.664ZM146.066 16.0449V53H138.665V16.0449H146.066ZM184.497 29.6055C184.497 31.9001 183.867 33.9618 182.607 35.7905C181.348 37.6193 179.7 38.965 177.665 39.8276L184.057 53H175.853L169.875 40.6816H158.644V53H151.242V36.981C151.242 35.9631 151.604 35.0918 152.329 34.3672C153.054 33.6426 153.925 33.2803 154.943 33.2803H173.42C174.438 33.2803 175.31 32.9266 176.034 32.2192C176.759 31.4946 177.121 30.6234 177.121 29.6055V27.1211C177.121 26.1032 176.759 25.2406 176.034 24.5332C175.31 23.8086 174.438 23.4463 173.42 23.4463H151.242V16.0449H173.42C175.456 16.0449 177.311 16.5452 178.984 17.5459C180.658 18.5465 181.995 19.8836 182.996 21.5571C183.996 23.2306 184.497 25.0853 184.497 27.1211V29.6055ZM197.1 16.0449V53H189.698V16.0449H197.1ZM217.052 53C213.101 53 209.616 51.5594 206.597 48.6782C203.716 45.659 202.275 42.174 202.275 38.2231V16.0449H209.677V38.2231C209.677 40.259 210.393 42.0015 211.825 43.4507C213.274 44.8826 215.016 45.5986 217.052 45.5986H222.176C224.212 45.5986 225.946 44.8826 227.378 43.4507C228.827 42.0015 229.552 40.259 229.552 38.2231V16.0449H236.953V38.2231C236.953 42.174 235.513 45.659 232.631 48.6782C229.612 51.5594 226.127 53 222.176 53H217.052ZM253.205 38.2231C251.169 38.2231 249.315 37.7228 247.641 36.7222C245.968 35.7215 244.631 34.3844 243.63 32.7109C242.629 31.0374 242.129 29.1742 242.129 27.1211C242.129 25.0853 242.629 23.2306 243.63 21.5571C244.631 19.8836 245.968 18.5465 247.641 17.5459C249.315 16.5452 251.169 16.0449 253.205 16.0449H274.762V23.4463H253.205C252.187 23.4463 251.316 23.8086 250.591 24.5332C249.884 25.2406 249.53 26.1032 249.53 27.1211C249.53 28.1562 249.884 29.0361 250.591 29.7607C251.316 30.4681 252.187 30.8218 253.205 30.8218H264.928C266.964 30.8218 268.819 31.3221 270.492 32.3228C272.166 33.3234 273.503 34.6691 274.503 36.3599C275.504 38.0334 276.004 39.888 276.004 41.9238C276.004 43.9596 275.504 45.8143 274.503 47.4878C273.503 49.1613 272.166 50.4984 270.492 51.499C268.819 52.4997 266.964 53 264.928 53H242.75V45.5986H264.928C265.946 45.5986 266.809 45.245 267.516 44.5376C268.241 43.813 268.603 42.9417 268.603 41.9238C268.603 40.9059 268.241 40.0347 267.516 39.3101C266.809 38.5854 265.946 38.2231 264.928 38.2231H253.205Z" fill="url(#paint5_linear_58_5)"/>
</g>
<defs>
<filter id="filter0_d_58_5" x="0" y="0" width="280.004" height="76" filterUnits="userSpaceOnUse" color-interpolation-filters="sRGB">
<feFlood flood-opacity="0" result="BackgroundImageFix"/>
<feColorMatrix in="SourceAlpha" type="matrix" values="0 0 0 0 0 0 0 0 0 0 0 0 0 0 0 0 0 0 127 0" result="hardAlpha"/>
<feOffset dy="4"/>
<feGaussianBlur stdDeviation="2"/>
<feComposite in2="hardAlpha" operator="out"/>
<feColorMatrix type="matrix" values="0 0 0 0 0 0 0 0 0 0 0 0 0 0 0 0 0 0 0.25 0"/>
<feBlend mode="normal" in2="BackgroundImageFix" result="effect1_dropShadow_58_5"/>
<feBlend mode="normal" in="SourceGraphic" in2="effect1_dropShadow_58_5" result="shape"/>
</filter>
<linearGradient id="paint0_linear_58_5" x1="53.9526" y1="17.7251" x2="2.70767" y2="69.2859" gradientUnits="userSpaceOnUse">
<stop stop-color="#AA0505"/>
<stop offset="1" stop-color="#AA0505"/>
</linearGradient>
<linearGradient id="paint1_linear_58_5" x1="53.9526" y1="17.7251" x2="2.70767" y2="69.2859" gradientUnits="userSpaceOnUse">
<stop stop-color="#AA0505"/>
<stop offset="1" stop-color="#AA0505"/>
</linearGradient>
<linearGradient id="paint2_linear_58_5" x1="53.9526" y1="17.7251" x2="2.70767" y2="69.2859" gradientUnits="userSpaceOnUse">
<stop stop-color="#AA0505"/>
<stop offset="1" stop-color="#AA0505"/>
</linearGradient>
<linearGradient id="paint3_linear_58_5" x1="53.9526" y1="17.7251" x2="2.70767" y2="69.2859" gradientUnits="userSpaceOnUse">
<stop stop-color="#AA0505"/>
<stop offset="1" stop-color="#AA0505"/>
</linearGradient>
<linearGradient id="paint4_linear_58_5" x1="53.9526" y1="17.7251" x2="2.70767" y2="69.2859" gradientUnits="userSpaceOnUse">
<stop stop-color="#AA0505"/>
<stop offset="1" stop-color="#AA0505"/>
</linearGradient>
<linearGradient id="paint5_linear_58_5" x1="243.497" y1="1.1661e-05" x2="146.81" y2="78.6146" gradientUnits="userSpaceOnUse">
<stop stop-color="#AA0505"/>
<stop offset="1" stop-color="#AA0505"/>
</linearGradient>
</defs>
</svg>
